<?xml version="1.0" standalone="no"?>
<!DOCTYPE svg PUBLIC "-//W3C//DTD SVG 20010904//EN"
 "http://www.w3.org/TR/2001/REC-SVG-20010904/DTD/svg10.dtd">
<svg version="1.0" xmlns="http://www.w3.org/2000/svg"
 width="1500.000000pt" height="200.000000pt" viewBox="0 0 1500.000000 200.000000"
 preserveAspectRatio="xMidYMid meet">

<g transform="translate(0.000000,200.000000) scale(0.100000,-0.100000)"
fill="#000000" stroke="none">
<path d="M3520 1529 c-72 -13 -148 -48 -197 -93 -117 -105 -148 -379 -64 -551
70 -141 191 -194 447 -195 56 0 125 5 154 10 126 24 218 93 245 183 20 67 19
83 -5 107 -17 17 -31 20 -83 18 -60 -3 -62 -4 -94 -48 -74 -103 -104 -115
-264 -107 -132 6 -177 26 -211 96 -19 40 -22 62 -22 166 0 213 39 255 239 263
126 5 167 -6 206 -57 78 -102 77 -101 138 -101 72 0 95 20 93 81 -4 86 -74
169 -178 209 -50 19 -82 23 -204 26 -80 2 -170 -1 -200 -7z"/>
<path d="M6849 1530 c-163 -26 -263 -120 -299 -281 -19 -85 -9 -269 19 -340
44 -115 138 -187 275 -210 89 -15 314 -6 381 15 149 46 224 162 225 344 0 88
-9 92 -198 92 -111 0 -163 -4 -175 -13 -26 -18 -33 -81 -13 -111 14 -23 24
-25 93 -28 l78 -3 -2 -33 c-1 -37 -23 -66 -68 -91 -24 -13 -58 -16 -165 -16
-117 0 -140 3 -170 20 -57 33 -74 81 -78 216 -7 227 34 278 227 287 149 7 197
-6 254 -68 43 -49 46 -50 101 -50 93 0 118 43 74 130 -27 52 -94 102 -171 126
-61 19 -301 28 -388 14z"/>
<path d="M2902 1514 l-22 -15 0 -389 0 -389 22 -15 c30 -21 136 -21 166 0 l22
15 0 389 0 389 -22 15 c-14 10 -44 16 -83 16 -39 0 -69 -6 -83 -16z"/>
<path d="M4257 1515 c-15 -15 -17 -57 -17 -404 0 -451 -7 -421 102 -421 93 0
107 13 110 110 l3 75 205 5 c187 5 210 8 257 29 119 53 168 151 161 320 -3 83
-8 103 -33 150 -17 30 -48 67 -69 83 -77 55 -115 61 -422 66 -251 3 -283 2
-297 -13z m543 -171 c93 -53 95 -221 3 -281 -23 -15 -54 -19 -190 -21 l-163
-4 0 167 0 167 158 -4 c135 -3 163 -7 192 -24z"/>
<path d="M5930 1516 c-36 -7 -81 -19 -101 -28 -49 -21 -106 -74 -129 -118 -14
-27 -135 -466 -173 -628 -9 -38 17 -52 92 -52 91 0 112 17 136 107 30 114 6
104 243 101 l207 -3 3 -85 c4 -110 12 -120 104 -120 115 0 108 -27 108 418 0
326 -2 381 -16 400 -15 22 -19 22 -212 21 -108 0 -226 -6 -262 -13z m278 -303
l3 -153 -191 0 c-154 0 -190 3 -190 14 0 27 57 205 74 231 31 48 88 65 201 62
l100 -2 3 -152z"/>
<path d="M7600 1510 c-19 -19 -20 -33 -20 -400 0 -367 1 -381 20 -400 19 -19
33 -20 368 -20 268 0 352 3 366 13 23 17 31 85 14 117 l-14 25 -269 5 -270 5
-3 88 -3 87 231 0 c217 0 231 1 250 20 25 25 27 90 3 119 -17 20 -28 21 -248
24 l-230 2 0 85 0 85 265 2 c256 3 266 4 283 24 24 29 22 94 -3 119 -19 19
-33 20 -370 20 -337 0 -351 -1 -370 -20z"/>
<path d="M8487 1512 c-15 -17 -17 -59 -17 -405 l0 -386 22 -15 c14 -10 44 -16
84 -16 97 0 94 -9 94 294 0 189 3 257 11 254 7 -2 85 -118 175 -258 100 -157
174 -262 191 -272 42 -27 243 -26 266 0 15 17 17 59 17 405 0 337 -2 388 -16
401 -21 22 -131 22 -162 0 -22 -15 -22 -17 -22 -295 0 -153 -3 -279 -7 -279
-5 0 -88 124 -187 275 -98 152 -190 284 -203 295 -22 17 -41 20 -128 20 -86 0
-104 -3 -118 -18z"/>
<path d="M9454 1516 c-14 -11 -19 -26 -19 -64 0 -79 5 -82 171 -82 l144 0 0
-320 c0 -379 -6 -360 108 -360 114 0 107 -24 110 354 l3 326 139 0 c162 0 170
4 170 79 0 85 18 81 -421 81 -317 0 -389 -3 -405 -14z"/>
</g>
</svg>
